<svg xmlns="http://www.w3.org/2000/svg" viewBox="0 0 32 32" fill="none" role="img" aria-label="Rclona">
  <rect width="32" height="32" rx="7" fill="#0f172a"/>
  <path d="M10 17.5c0-3.6 2.9-6.5 6.5-6.5 1.6 0 3.1.6 4.2 1.6.9-1.5 2.5-2.5 4.4-2.5 2.8 0 5.1 2.3 5.1 5.1 0 .6-.1 1.2-.3 1.8 1.6.8 2.7 2.5 2.7 4.4 0 2.8-2.3 5.1-5.1 5.1H12.5c-2.8 0-5.1-2.3-5.1-5.1 0-1.9 1-3.5 2.5-4.4-.2-.6-.3-1.3-.3-2 0-2.8 2.3-5.1 5.1-5.1 1.4 0 2.7.6 3.6 1.5.8-1.1 2.1-1.8 3.6-1.8 2.8 0 5.1 2.3 5.1 5.1z" fill="#e2e8f0"/>
  <path d="M12.5 21h7" stroke="#22d3ee" stroke-width="1.6" stroke-linecap="round"/>
  <path d="M14 19.2l-1.5 1.8 1.5 1.8" stroke="#22d3ee" stroke-width="1.6" stroke-linecap="round" stroke-linejoin="round" fill="none"/>
  <path d="M18 19.2l1.5 1.8-1.5 1.8" stroke="#22d3ee" stroke-width="1.6" stroke-linecap="round" stroke-linejoin="round" fill="none"/>
</svg>
