<svg xmlns="http://www.w3.org/2000/svg" viewBox="0 0 512 512" fill="none" role="img" aria-label="Rclona">
  <defs>
    <linearGradient id="bg" x1="96" y1="64" x2="416" y2="448" gradientUnits="userSpaceOnUse">
      <stop stop-color="#1e3a5f"/>
      <stop offset="1" stop-color="#0f172a"/>
    </linearGradient>
    <linearGradient id="cloud" x1="156" y1="168" x2="356" y2="300" gradientUnits="userSpaceOnUse">
      <stop stop-color="#f8fafc"/>
      <stop offset="1" stop-color="#cbd5e1"/>
    </linearGradient>
    <linearGradient id="arrow" x1="176" y1="320" x2="336" y2="384" gradientUnits="userSpaceOnUse">
      <stop stop-color="#22d3ee"/>
      <stop offset="1" stop-color="#0ea5e9"/>
    </linearGradient>
  </defs>
  <rect width="512" height="512" rx="112" fill="url(#bg)"/>
  <path d="M156 286c0-41.4 33.6-75 75-75 18.6 0 35.6 6.8 48.7 18.1 14.8-24.8 42-41.1 73-41.1 46.9 0 84.9 38 84.9 84.9 0 10.5-1.9 20.5-5.4 29.8 27.2 14.2 45.8 42.8 45.8 75.8 0 47.1-38.2 85.3-85.3 85.3H188c-47.1 0-85.3-38.2-85.3-85.3 0-31.2 16.8-58.5 41.8-73.4-3.2-9.8-4.9-20.3-4.9-31.2 0-46.9 38-84.9 84.9-84.9 24.1 0 45.9 10 61.3 26.1C276.8 196.8 254.9 186 231 186c-41.4 0-75 33.6-75 75z" fill="url(#cloud)"/>
  <path d="M200 336h112" stroke="url(#arrow)" stroke-width="14" stroke-linecap="round"/>
  <path d="M224 312l-24 24 24 24" stroke="url(#arrow)" stroke-width="14" stroke-linecap="round" stroke-linejoin="round" fill="none"/>
  <path d="M288 312l24 24-24 24" stroke="url(#arrow)" stroke-width="14" stroke-linecap="round" stroke-linejoin="round" fill="none"/>
</svg>
